<mxfile host="app.diagrams.net" modified="2024-06-06T03:30:45.412Z" agent="Mozilla/5.0 (Windows NT 10.0; Win64; x64) AppleWebKit/537.36 (KHTML, like Gecko) Chrome/125.0.0.0 Safari/537.36" version="24.4.13" etag="-mC8N6NuUs433LZNLAQD" type="github">
  <diagram name="第 1 页" id="xqBQVpQvGzMyJBM392vk">
    <mxGraphModel>
      <root>
        <mxCell id="0" />
        <mxCell id="1" parent="0" />
      </root>
    </mxGraphModel>
  </diagram>
</mxfile>
